<svg width="1014" height="173" viewBox="0 0 1014 173" fill="none" xmlns="http://www.w3.org/2000/svg">
<path d="M18.24 81.928H25.92C26.816 81.928 27.424 81.768 27.744 81.448C28.064 81.064 28.224 80.456 28.224 79.624V22.984C28.224 21.96 27.904 21.16 27.264 20.584C26.624 20.008 25.76 19.72 24.672 19.72C21.664 19.72 18.912 21.384 16.416 24.712C13.92 27.976 12.064 31.816 10.848 36.232C10.144 38.6 9.632 40.616 9.312 42.28C9.056 43.88 8.896 44.872 8.832 45.256H5.76L6.528 16.648H64.128L64.896 45.256H61.824C61.76 44.872 61.568 43.88 61.248 42.28C60.992 40.616 60.512 38.6 59.808 36.232C58.592 31.816 56.736 27.976 54.24 24.712C51.744 21.384 48.992 19.72 45.984 19.72C44.896 19.72 44.032 20.008 43.392 20.584C42.752 21.16 42.432 21.96 42.432 22.984V79.624C42.432 80.456 42.592 81.064 42.912 81.448C43.296 81.768 43.904 81.928 44.736 81.928H52.416V85H18.24V81.928ZM74.6708 81.928H81.3907C82.2868 81.928 82.8948 81.768 83.2148 81.448C83.5348 81.064 83.6948 80.456 83.6948 79.624V22.024C83.6948 21.128 83.5348 20.52 83.2148 20.2C82.8948 19.88 82.2868 19.72 81.3907 19.72H74.6708V16.648H106.927V19.72H100.207C99.3748 19.72 98.7668 19.88 98.3828 20.2C98.0628 20.52 97.9028 21.128 97.9028 22.024V47.368H120.559V22.024C120.559 21.128 120.399 20.52 120.079 20.2C119.759 19.88 119.151 19.72 118.255 19.72H111.343V16.648H143.791V19.72H137.071C136.239 19.72 135.631 19.88 135.247 20.2C134.927 20.52 134.767 21.128 134.767 22.024V79.624C134.767 80.456 134.927 81.064 135.247 81.448C135.631 81.768 136.239 81.928 137.071 81.928H143.791V85H111.535V81.928H118.255C119.151 81.928 119.759 81.768 120.079 81.448C120.399 81.064 120.559 80.456 120.559 79.624V50.824H97.9028V79.624C97.9028 80.456 98.0628 81.064 98.3828 81.448C98.7668 81.768 99.3748 81.928 100.207 81.928H106.927V85H74.6708V81.928ZM153.796 81.928H160.516C161.412 81.928 162.02 81.768 162.34 81.448C162.66 81.064 162.82 80.456 162.82 79.624V22.024C162.82 21.128 162.66 20.52 162.34 20.2C162.02 19.88 161.412 19.72 160.516 19.72H153.796V16.648H207.748L208.324 38.92H205.252C205.252 38.472 204.9 37.032 204.196 34.6C203.556 32.168 202.628 29.96 201.412 27.976C199.94 25.416 198.244 23.4 196.324 21.928C194.404 20.456 192.26 19.72 189.892 19.72H179.332C178.5 19.72 177.892 19.88 177.508 20.2C177.188 20.52 177.028 21.128 177.028 22.024V48.52H181.924C183.652 48.52 185.252 47.816 186.724 46.408C188.196 45 189.348 43.272 190.18 41.224C191.076 39.112 191.524 37.128 191.524 35.272H194.596V65.32H191.524C191.524 63.4 191.076 61.416 190.18 59.368C189.348 57.256 188.196 55.496 186.724 54.088C185.252 52.68 183.652 51.976 181.924 51.976H177.028V79.624C177.028 80.456 177.188 81.064 177.508 81.448C177.892 81.768 178.5 81.928 179.332 81.928H189.796C193.316 81.928 196.26 80.52 198.628 77.704C200.996 74.888 202.788 71.752 204.004 68.296C204.516 66.824 204.964 65 205.348 62.824C205.732 60.648 205.956 59.208 206.02 58.504H209.092L208.516 85H153.796V81.928ZM260.135 33.448H259.463V73.288C259.463 76.168 260.423 78.344 262.343 79.816C264.327 81.224 266.695 81.928 269.447 81.928V85H245.639V81.928C248.391 81.928 250.727 81.224 252.647 79.816C254.631 78.344 255.623 76.168 255.623 73.288V22.024C255.623 21.128 255.463 20.52 255.143 20.2C254.823 19.88 254.215 19.72 253.319 19.72H245.639V16.648H268.583L286.151 63.88L299.015 16.648H323.399V19.72H316.679C315.847 19.72 315.239 19.88 314.855 20.2C314.535 20.52 314.375 21.128 314.375 22.024V79.624C314.375 80.456 314.535 81.064 314.855 81.448C315.239 81.768 315.847 81.928 316.679 81.928H323.399V85H291.143V81.928H297.863C298.759 81.928 299.367 81.768 299.687 81.448C300.007 81.064 300.167 80.456 300.167 79.624V25L283.463 86.152H279.719L260.135 33.448ZM361.574 86.728C356.646 86.728 351.974 85.032 347.558 81.64C343.206 78.248 339.718 73.8 337.094 68.296C334.47 62.728 333.158 56.904 333.158 50.824C333.158 44.744 334.47 38.952 337.094 33.448C339.718 27.88 343.206 23.4 347.558 20.008C351.974 16.616 356.646 14.92 361.574 14.92C366.502 14.92 371.142 16.616 375.494 20.008C379.91 23.4 383.43 27.88 386.054 33.448C388.678 38.952 389.99 44.744 389.99 50.824C389.99 56.904 388.678 62.728 386.054 68.296C383.43 73.8 379.91 78.248 375.494 81.64C371.142 85.032 366.502 86.728 361.574 86.728ZM361.574 83.656C365.478 83.656 368.454 82.248 370.502 79.432C372.614 76.552 373.67 71.816 373.67 65.224V36.424C373.67 29.832 372.614 25.128 370.502 22.312C368.454 19.432 365.478 17.992 361.574 17.992C357.67 17.992 354.662 19.432 352.55 22.312C350.502 25.128 349.478 29.832 349.478 36.424V65.224C349.478 71.816 350.502 76.552 352.55 79.432C354.662 82.248 357.67 83.656 361.574 83.656ZM451.901 87.304C447.805 87.304 444.541 86.088 442.109 83.656C439.741 81.224 438.557 77.64 438.557 72.904V61C438.557 57.928 437.789 55.336 436.253 53.224C434.781 51.112 432.477 50.056 429.341 50.056H423.965V79.624C423.965 80.456 424.125 81.064 424.445 81.448C424.829 81.768 425.437 81.928 426.269 81.928H434.717V85H400.733V81.928H407.453C408.349 81.928 408.957 81.768 409.277 81.448C409.597 81.064 409.757 80.456 409.757 79.624V22.024C409.757 21.128 409.597 20.52 409.277 20.2C408.957 19.88 408.349 19.72 407.453 19.72H400.733V16.648H431.837C438.749 16.648 444.317 18.184 448.541 21.256C452.765 24.264 454.877 28.36 454.877 33.544C454.877 37.96 453.245 41.448 449.981 44.008C446.781 46.568 442.525 48.168 437.213 48.808V49.48C442.205 50.376 446.045 52.168 448.733 54.856C451.421 57.48 452.765 61.608 452.765 67.24V77.896C452.765 80.584 453.661 81.928 455.453 81.928C457.117 81.928 458.333 80.552 459.101 77.8C459.869 75.048 460.253 71.688 460.253 67.72H463.325C463.325 73.928 462.493 78.76 460.829 82.216C459.165 85.608 456.189 87.304 451.901 87.304ZM430.397 46.984C433.789 46.984 436.157 45.736 437.501 43.24C438.845 40.744 439.517 37.256 439.517 32.776C439.517 28.424 438.845 25.16 437.501 22.984C436.157 20.808 433.789 19.72 430.397 19.72H426.269C425.437 19.72 424.829 19.88 424.445 20.2C424.125 20.52 423.965 21.128 423.965 22.024V46.984H430.397ZM485.834 35.368H485.45V71.944C485.45 74.888 486.57 77.288 488.81 79.144C491.114 81 494.026 81.928 497.546 81.928V85H469.514V81.928C473.034 81.928 475.914 81 478.154 79.144C480.458 77.288 481.61 74.888 481.61 71.944V30.952C481.61 30.248 481.546 29.736 481.418 29.416C481.29 29.096 481.002 28.616 480.554 27.976L476.714 22.216C476.074 21.256 475.37 20.616 474.602 20.296C473.834 19.912 472.714 19.72 471.242 19.72H469.514V16.648H490.826L521.546 60.52V29.704C521.546 26.76 520.394 24.36 518.09 22.504C515.85 20.648 512.97 19.72 509.45 19.72V16.648H537.482V19.72C533.962 19.72 531.05 20.648 528.746 22.504C526.506 24.36 525.386 26.76 525.386 29.704V86.728H521.738L485.834 35.368ZM544.171 81.928H550.891C551.787 81.928 552.395 81.768 552.715 81.448C553.035 81.064 553.195 80.456 553.195 79.624V22.024C553.195 21.128 553.035 20.52 552.715 20.2C552.395 19.88 551.787 19.72 550.891 19.72H544.171V16.648H576.427V19.72H569.707C568.875 19.72 568.267 19.88 567.883 20.2C567.563 20.52 567.403 21.128 567.403 22.024V79.624C567.403 80.456 567.563 81.064 567.883 81.448C568.267 81.768 568.875 81.928 569.707 81.928H576.427V85H544.171V81.928ZM601.428 35.368H601.044V71.944C601.044 74.888 602.164 77.288 604.404 79.144C606.708 81 609.62 81.928 613.14 81.928V85H585.108V81.928C588.628 81.928 591.508 81 593.748 79.144C596.052 77.288 597.204 74.888 597.204 71.944V30.952C597.204 30.248 597.14 29.736 597.012 29.416C596.884 29.096 596.596 28.616 596.148 27.976L592.308 22.216C591.668 21.256 590.964 20.616 590.196 20.296C589.428 19.912 588.308 19.72 586.836 19.72H585.108V16.648H606.42L637.14 60.52V29.704C637.14 26.76 635.988 24.36 633.684 22.504C631.444 20.648 628.564 19.72 625.044 19.72V16.648H653.076V19.72C649.556 19.72 646.644 20.648 644.34 22.504C642.1 24.36 640.98 26.76 640.98 29.704V86.728H637.332L601.428 35.368ZM687.413 86.728C681.973 86.728 677.205 85.096 673.109 81.832C669.077 78.568 665.973 74.216 663.797 68.776C661.621 63.272 660.533 57.288 660.533 50.824C660.533 44.424 661.749 38.472 664.181 32.968C666.613 27.464 670.005 23.08 674.357 19.816C678.709 16.552 683.637 14.92 689.141 14.92C691.893 14.92 694.261 15.336 696.245 16.168C698.293 16.936 700.469 18.088 702.773 19.624C704.245 20.584 705.333 21.064 706.037 21.064C706.869 21.064 707.573 20.456 708.149 19.24L709.781 15.688H712.949V43.336H709.973C707.733 35.208 704.853 28.968 701.333 24.616C697.877 20.2 693.813 17.992 689.141 17.992C685.237 17.992 682.197 19.432 680.021 22.312C677.909 25.128 676.853 29.832 676.853 36.424V65.224C676.853 77.512 680.373 83.656 687.413 83.656C690.741 83.656 693.461 82.248 695.573 79.432C697.685 76.616 698.741 73.32 698.741 69.544V56.392C698.741 55.496 698.581 54.888 698.261 54.568C697.941 54.248 697.333 54.088 696.437 54.088H687.989V51.016H719.861V54.088H715.253C714.421 54.088 713.813 54.248 713.429 54.568C713.109 54.888 712.949 55.496 712.949 56.392V86.248H709.877L707.573 77.512C707.381 76.872 707.093 76.328 706.708 75.88C706.325 75.368 705.845 75.112 705.269 75.112C704.117 75.112 703.125 75.784 702.292 77.128C700.693 79.56 698.613 81.768 696.053 83.752C693.493 85.736 690.613 86.728 687.413 86.728ZM755.765 81.928H762.484C763.381 81.928 763.989 81.768 764.309 81.448C764.629 81.064 764.789 80.456 764.789 79.624V22.024C764.789 21.128 764.629 20.52 764.309 20.2C763.989 19.88 763.381 19.72 762.484 19.72H755.765V16.648H789.941C794.421 16.648 798.389 17.416 801.845 18.952C805.365 20.424 808.085 22.536 810.005 25.288C811.989 27.976 812.981 31.048 812.981 34.504C812.981 38.024 811.989 41.16 810.005 43.912C808.085 46.664 805.365 48.84 801.845 50.44C798.389 51.976 794.421 52.744 789.941 52.744H778.997V79.624C778.997 80.456 779.157 81.064 779.477 81.448C779.861 81.768 780.469 81.928 781.301 81.928H789.749V85H755.765V81.928ZM788.501 49.672C791.829 49.672 794.165 48.328 795.509 45.64C796.917 42.952 797.621 39.24 797.621 34.504C797.621 29.832 796.949 26.216 795.605 23.656C794.261 21.032 791.893 19.72 788.501 19.72H781.301C780.469 19.72 779.861 19.88 779.477 20.2C779.157 20.52 778.997 21.128 778.997 22.024V49.672H788.501ZM852.355 86.728C847.427 86.728 842.755 85.032 838.339 81.64C833.987 78.248 830.499 73.8 827.875 68.296C825.251 62.728 823.939 56.904 823.939 50.824C823.939 44.744 825.251 38.952 827.875 33.448C830.499 27.88 833.987 23.4 838.339 20.008C842.755 16.616 847.427 14.92 852.355 14.92C857.283 14.92 861.923 16.616 866.275 20.008C870.691 23.4 874.211 27.88 876.835 33.448C879.459 38.952 880.771 44.744 880.771 50.824C880.771 56.904 879.459 62.728 876.835 68.296C874.211 73.8 870.691 78.248 866.275 81.64C861.923 85.032 857.283 86.728 852.355 86.728ZM852.355 83.656C856.259 83.656 859.235 82.248 861.283 79.432C863.395 76.552 864.451 71.816 864.451 65.224V36.424C864.451 29.832 863.395 25.128 861.283 22.312C859.235 19.432 856.259 17.992 852.355 17.992C848.451 17.992 845.443 19.432 843.331 22.312C841.283 25.128 840.259 29.832 840.259 36.424V65.224C840.259 71.816 841.283 76.552 843.331 79.432C845.443 82.248 848.451 83.656 852.355 83.656ZM918.875 86.728C916.059 86.728 913.531 86.312 911.291 85.48C909.051 84.712 907.195 83.72 905.723 82.504C904.251 81.416 903.195 80.68 902.555 80.296C901.915 79.848 901.307 79.624 900.731 79.624C899.387 79.624 898.555 80.712 898.234 82.888L897.755 85.96H894.779L894.203 55.624H897.275C898.171 60.488 899.675 65.064 901.787 69.352C903.963 73.64 906.555 77.096 909.562 79.72C912.635 82.344 915.931 83.656 919.451 83.656C924.507 83.656 927.963 82.536 929.819 80.296C931.675 78.056 932.603 75.528 932.603 72.712C932.603 71.048 931.995 69.576 930.779 68.296C929.627 66.952 927.931 65.544 925.691 64.072L905.147 50.824C902.139 48.904 899.579 46.504 897.467 43.624C895.419 40.744 894.395 37.32 894.395 33.352C894.395 27.144 896.187 22.536 899.771 19.528C903.419 16.456 907.899 14.92 913.211 14.92C917.755 14.92 922.299 16.52 926.843 19.72C928.315 20.872 929.467 21.448 930.299 21.448C931.451 21.448 932.155 20.712 932.411 19.24L932.987 16.648H936.059L937.019 41.608H933.947C932.731 37.192 931.035 33.192 928.859 29.608C926.683 26.024 924.155 23.208 921.275 21.16C918.459 19.048 915.515 17.992 912.443 17.992C909.051 17.992 906.523 18.664 904.859 20.008C903.259 21.352 902.459 23.368 902.459 26.056C902.459 29.704 905.307 33.384 911.003 37.096L931.643 50.44C934.267 52.168 936.347 54.536 937.883 57.544C939.483 60.552 940.283 63.688 940.283 66.952C940.283 70.28 939.483 73.448 937.883 76.456C936.283 79.464 933.883 81.928 930.683 83.848C927.483 85.768 923.547 86.728 918.875 86.728ZM963.334 81.928H971.014C971.91 81.928 972.518 81.768 972.838 81.448C973.158 81.064 973.318 80.456 973.318 79.624V22.984C973.318 21.96 972.998 21.16 972.358 20.584C971.718 20.008 970.854 19.72 969.766 19.72C966.758 19.72 964.006 21.384 961.51 24.712C959.014 27.976 957.158 31.816 955.942 36.232C955.238 38.6 954.726 40.616 954.406 42.28C954.15 43.88 953.99 44.872 953.926 45.256H950.854L951.622 16.648H1009.22L1009.99 45.256H1006.92C1006.85 44.872 1006.66 43.88 1006.34 42.28C1006.09 40.616 1005.61 38.6 1004.9 36.232C1003.69 31.816 1001.83 27.976 999.334 24.712C996.838 21.384 994.086 19.72 991.078 19.72C989.99 19.72 989.126 20.008 988.486 20.584C987.846 21.16 987.526 21.96 987.526 22.984V79.624C987.526 80.456 987.686 81.064 988.006 81.448C988.39 81.768 988.998 81.928 989.83 81.928H997.51V85H963.334V81.928Z" fill="white"/>
<path d="M686.84 144.6L686.48 146.724H672.476L672.836 144.6H686.84ZM989.184 144.6L988.824 146.724H974.82L975.18 144.6H989.184Z" fill="#FF0000"/>
<path d="M709.936 133.836L709.576 135.852H702.556L698.488 159H695.968L700.036 135.852H693.052L693.412 133.836H709.936ZM714.851 135.636C714.395 135.636 714.023 135.504 713.735 135.24C713.447 134.952 713.303 134.58 713.303 134.124C713.303 133.5 713.519 132.984 713.951 132.576C714.383 132.144 714.899 131.928 715.499 131.928C715.955 131.928 716.315 132.06 716.579 132.324C716.867 132.588 717.011 132.936 717.011 133.368C717.011 133.992 716.795 134.532 716.363 134.988C715.931 135.42 715.427 135.636 714.851 135.636ZM715.427 139.344L711.971 159H709.451L712.907 139.344H715.427ZM744.642 138.984C746.61 138.984 748.182 139.524 749.358 140.604C750.558 141.684 751.158 143.268 751.158 145.356C751.158 146.004 751.086 146.712 750.942 147.48L748.89 159H746.406L748.422 147.768C748.542 147.048 748.602 146.448 748.602 145.968C748.602 144.408 748.182 143.22 747.342 142.404C746.502 141.588 745.314 141.18 743.778 141.18C742.074 141.18 740.574 141.72 739.278 142.8C738.006 143.88 737.118 145.44 736.614 147.48L734.526 159H732.042L734.058 147.768C734.178 147.048 734.238 146.448 734.238 145.968C734.238 144.408 733.818 143.22 732.978 142.404C732.138 141.588 730.962 141.18 729.45 141.18C727.626 141.18 726.054 141.78 724.734 142.98C723.414 144.156 722.538 145.86 722.106 148.092L720.198 159H717.678L721.134 139.344H723.654L723.042 142.764C723.858 141.54 724.902 140.604 726.174 139.956C727.47 139.308 728.838 138.984 730.278 138.984C731.982 138.984 733.398 139.392 734.526 140.208C735.654 141.024 736.362 142.224 736.65 143.808C737.442 142.248 738.558 141.06 739.998 140.244C741.438 139.404 742.986 138.984 744.642 138.984ZM766.51 139.056C768.166 139.056 769.582 139.38 770.758 140.028C771.934 140.652 772.822 141.516 773.422 142.62C774.046 143.724 774.358 144.984 774.358 146.4C774.358 147.048 774.31 147.624 774.214 148.128C774.07 148.848 773.926 149.496 773.782 150.072H757.474C757.402 150.528 757.366 150.96 757.366 151.368C757.366 153.216 757.918 154.644 759.022 155.652C760.15 156.66 761.578 157.164 763.306 157.164C764.962 157.164 766.414 156.768 767.662 155.976C768.91 155.184 769.822 154.116 770.398 152.772H773.098C772.282 154.692 770.974 156.264 769.174 157.488C767.398 158.688 765.322 159.288 762.946 159.288C760.498 159.288 758.53 158.592 757.042 157.2C755.578 155.784 754.846 153.864 754.846 151.44C754.846 150.72 754.918 149.964 755.062 149.172C755.422 147.132 756.142 145.344 757.222 143.808C758.326 142.272 759.682 141.096 761.29 140.28C762.898 139.464 764.638 139.056 766.51 139.056ZM771.622 148.2C771.742 147.528 771.802 146.964 771.802 146.508C771.802 144.804 771.262 143.496 770.182 142.584C769.102 141.672 767.722 141.216 766.042 141.216C764.818 141.216 763.642 141.48 762.514 142.008C761.386 142.536 760.402 143.328 759.562 144.384C758.722 145.44 758.146 146.712 757.834 148.2H771.622ZM784.117 132.36L779.401 159H776.881L781.597 132.36H784.117ZM789.031 139.344L792.739 156.012L802.135 139.344H804.763L788.023 168.252H785.359L790.831 158.856L786.223 139.344H789.031ZM815.918 149.136C816.278 147.12 816.998 145.356 818.078 143.844C819.158 142.308 820.478 141.132 822.038 140.316C823.622 139.476 825.314 139.056 827.114 139.056C828.986 139.056 830.522 139.488 831.722 140.352C832.922 141.216 833.702 142.32 834.062 143.664L834.818 139.344H837.338L833.882 159H831.362L832.118 154.644C831.302 155.988 830.126 157.104 828.59 157.992C827.078 158.856 825.386 159.288 823.514 159.288C821.954 159.288 820.586 158.964 819.41 158.316C818.234 157.668 817.322 156.756 816.674 155.58C816.026 154.38 815.702 152.976 815.702 151.368C815.702 150.672 815.774 149.928 815.918 149.136ZM833.09 149.172C833.21 148.5 833.27 147.9 833.27 147.372C833.27 145.5 832.706 144.012 831.578 142.908C830.45 141.804 828.986 141.252 827.186 141.252C825.794 141.252 824.486 141.564 823.262 142.188C822.062 142.812 821.042 143.724 820.202 144.924C819.362 146.1 818.798 147.504 818.51 149.136C818.39 149.856 818.33 150.468 818.33 150.972C818.33 152.868 818.882 154.368 819.986 155.472C821.114 156.552 822.578 157.092 824.378 157.092C825.722 157.092 827.006 156.768 828.23 156.12C829.478 155.472 830.522 154.548 831.362 153.348C832.226 152.148 832.802 150.756 833.09 149.172ZM852.415 138.984C854.431 138.984 856.039 139.536 857.239 140.64C858.463 141.72 859.075 143.304 859.075 145.392C859.075 146.16 859.015 146.856 858.895 147.48L856.843 159H854.359L856.339 147.768C856.435 147.216 856.483 146.628 856.483 146.004C856.483 144.42 856.051 143.22 855.187 142.404C854.323 141.588 853.111 141.18 851.551 141.18C849.655 141.18 848.035 141.78 846.691 142.98C845.347 144.18 844.471 145.944 844.063 148.272V148.164L842.155 159H839.635L843.091 139.344H845.611L844.999 142.728C845.839 141.528 846.907 140.604 848.203 139.956C849.499 139.308 850.903 138.984 852.415 138.984ZM862.992 149.136C863.352 147.12 864.072 145.356 865.152 143.844C866.232 142.308 867.564 141.132 869.148 140.316C870.732 139.476 872.424 139.056 874.224 139.056C875.952 139.056 877.428 139.476 878.652 140.316C879.9 141.156 880.74 142.248 881.172 143.592L883.152 132.36H885.672L880.956 159H878.436L879.228 154.608C878.364 155.976 877.176 157.104 875.664 157.992C874.152 158.856 872.472 159.288 870.624 159.288C868.248 159.288 866.34 158.58 864.9 157.164C863.484 155.724 862.776 153.792 862.776 151.368C862.776 150.672 862.848 149.928 862.992 149.136ZM880.164 149.172C880.284 148.5 880.344 147.9 880.344 147.372C880.344 145.5 879.78 144.012 878.652 142.908C877.524 141.804 876.06 141.252 874.26 141.252C872.868 141.252 871.56 141.564 870.336 142.188C869.136 142.812 868.116 143.724 867.276 144.924C866.436 146.1 865.872 147.504 865.584 149.136C865.464 149.856 865.404 150.468 865.404 150.972C865.404 152.868 865.956 154.368 867.06 155.472C868.188 156.552 869.652 157.092 871.452 157.092C872.796 157.092 874.08 156.768 875.304 156.12C876.552 155.472 877.596 154.548 878.436 153.348C879.3 152.148 879.876 150.756 880.164 149.172ZM916.91 140.172C916.646 141.732 916.01 143.004 915.002 143.988C913.994 144.948 912.794 145.62 911.402 146.004C912.602 146.22 913.574 146.808 914.318 147.768C915.086 148.704 915.47 149.832 915.47 151.152C915.47 151.488 915.434 151.86 915.362 152.268C915.146 153.54 914.63 154.692 913.814 155.724C912.998 156.732 911.918 157.536 910.574 158.136C909.254 158.712 907.742 159 906.038 159H897.326L901.754 133.836H910.25C912.482 133.836 914.162 134.304 915.29 135.24C916.442 136.176 917.018 137.412 917.018 138.948C917.018 139.332 916.982 139.74 916.91 140.172ZM914.318 140.424C914.366 140.208 914.39 139.896 914.39 139.488C914.39 138.36 913.994 137.472 913.202 136.824C912.41 136.176 911.234 135.852 909.674 135.852H903.914L902.33 144.996H908.198C909.878 144.996 911.246 144.588 912.302 143.772C913.382 142.956 914.054 141.84 914.318 140.424ZM912.878 152.016C912.95 151.656 912.986 151.32 912.986 151.008C912.986 149.784 912.53 148.824 911.618 148.128C910.706 147.408 909.446 147.048 907.838 147.048H901.934L900.206 156.948H906.218C908.042 156.948 909.542 156.516 910.718 155.652C911.894 154.764 912.614 153.552 912.878 152.016ZM927.447 159.288C925.815 159.288 924.375 158.964 923.127 158.316C921.879 157.644 920.907 156.708 920.211 155.508C919.539 154.284 919.203 152.856 919.203 151.224C919.203 149.016 919.707 146.988 920.715 145.14C921.723 143.268 923.127 141.792 924.927 140.712C926.727 139.608 928.731 139.056 930.939 139.056C932.571 139.056 934.011 139.392 935.259 140.064C936.507 140.712 937.479 141.648 938.175 142.872C938.871 144.072 939.219 145.488 939.219 147.12C939.219 149.352 938.703 151.392 937.671 153.24C936.639 155.088 935.223 156.564 933.423 157.668C931.647 158.748 929.655 159.288 927.447 159.288ZM927.735 157.164C929.439 157.164 930.963 156.708 932.307 155.796C933.675 154.884 934.731 153.672 935.475 152.16C936.243 150.648 936.627 149.016 936.627 147.264C936.627 145.296 936.051 143.796 934.899 142.764C933.771 141.732 932.331 141.216 930.579 141.216C928.875 141.216 927.351 141.672 926.007 142.584C924.687 143.496 923.655 144.708 922.911 146.22C922.167 147.732 921.795 149.364 921.795 151.116C921.795 153.06 922.359 154.56 923.487 155.616C924.615 156.648 926.031 157.164 927.735 157.164ZM949.14 132.36L944.424 159H941.904L946.62 132.36H949.14ZM950.707 149.136C951.067 147.12 951.787 145.356 952.867 143.844C953.947 142.308 955.279 141.132 956.863 140.316C958.447 139.476 960.139 139.056 961.939 139.056C963.667 139.056 965.143 139.476 966.367 140.316C967.615 141.156 968.455 142.248 968.887 143.592L970.867 132.36H973.387L968.671 159H966.151L966.943 154.608C966.079 155.976 964.891 157.104 963.379 157.992C961.867 158.856 960.187 159.288 958.339 159.288C955.963 159.288 954.055 158.58 952.615 157.164C951.199 155.724 950.491 153.792 950.491 151.368C950.491 150.672 950.563 149.928 950.707 149.136ZM967.879 149.172C967.999 148.5 968.059 147.9 968.059 147.372C968.059 145.5 967.495 144.012 966.367 142.908C965.239 141.804 963.775 141.252 961.975 141.252C960.583 141.252 959.275 141.564 958.051 142.188C956.851 142.812 955.831 143.724 954.991 144.924C954.151 146.1 953.587 147.504 953.299 149.136C953.179 149.856 953.119 150.468 953.119 150.972C953.119 152.868 953.671 154.368 954.775 155.472C955.903 156.552 957.367 157.092 959.167 157.092C960.511 157.092 961.795 156.768 963.019 156.12C964.267 155.472 965.311 154.548 966.151 153.348C967.015 152.148 967.591 150.756 967.879 149.172Z" fill="white"/>
<line y1="118.5" x2="1014" y2="118.5" stroke="#FF0000"/>
</svg>
